<svg id="light" enable-background="new 0 0 24 24" height="512" viewBox="0 0 24 24" width="512" xmlns="http://www.w3.org/2000/svg"><path d="m23.5 24h-23c-.276 0-.5-.224-.5-.5s.224-.5.5-.5h23c.276 0 .5.224.5.5s-.224.5-.5.5z"/><path d="m6.5 24h-5c-.276 0-.5-.224-.5-.5v-5.5c0-.551.448-1 1-1h4c.552 0 1 .449 1 1v5.5c0 .276-.224.5-.5.5zm-4.5-1h4v-5h-4z"/><path d="m14.5 24h-5c-.276 0-.5-.224-.5-.5v-11.5c0-.551.448-1 1-1h4c.552 0 1 .449 1 1v11.5c0 .276-.224.5-.5.5zm-4.5-1h4v-11h-4z"/><path d="m22.5 24h-5c-.276 0-.5-.224-.5-.5v-9.5c0-.551.448-1 1-1h4c.552 0 1 .449 1 1v9.5c0 .276-.224.5-.5.5zm-4.5-1h4v-9h-4z"/><path d="m2.5 11c-.128 0-.256-.049-.354-.146-.195-.195-.195-.512 0-.707l5-5c.124-.124.303-.176.475-.132l7.726 1.931 5.8-5.8c.195-.195.512-.195.707 0s.195.512 0 .707l-6 6c-.123.124-.303.174-.475.131l-7.726-1.93-4.8 4.8c-.097.097-.225.146-.353.146z"/><path d="m21.5 6c-.276 0-.5-.224-.5-.5v-3.5h-3.5c-.276 0-.5-.224-.5-.5s.224-.5.5-.5h4c.276 0 .5.224.5.5v4c0 .276-.224.5-.5.5z"/></svg>